<?xml version="1.0" encoding="UTF-8"?><svg id="a" xmlns="http://www.w3.org/2000/svg" viewBox="0 0 858 858"><rect x="479.48" y="764.49" width="1.33" height="1.33" style="fill:none;"/><polygon points="480.55 765.61 480.57 765.58 480.59 765.52 480.58 765.52 480.55 765.61 480.55 765.61" style="fill:#fff;"/><circle cx="429" cy="429" r="428.5" style="fill:#181553;"/><path d="M429,858c-57.91,0-114.1-11.34-166.99-33.71-51.08-21.61-96.96-52.54-136.36-91.94s-70.33-85.28-91.94-136.36C11.34,543.1,0,486.91,0,429s11.34-114.1,33.71-166.99c21.61-51.08,52.54-96.96,91.94-136.36s85.28-70.33,136.36-91.94C314.9,11.34,371.09,0,429,0s114.1,11.34,166.99,33.71c51.08,21.61,96.96,52.54,136.36,91.94s70.33,85.28,91.94,136.36c22.37,52.89,33.71,109.07,33.71,166.99s-11.34,114.1-33.71,166.99c-21.61,51.08-52.54,96.96-91.94,136.36s-85.28,70.33-136.36,91.94c-52.89,22.37-109.07,33.71-166.99,33.71ZM429,1c-57.78,0-113.83,11.32-166.6,33.63-50.97,21.56-96.74,52.42-136.04,91.72s-70.17,85.08-91.72,136.04C12.32,315.17,1,371.22,1,429s11.32,113.83,33.63,166.6c21.56,50.97,52.42,96.74,91.72,136.04s85.08,70.17,136.04,91.72c52.77,22.32,108.82,33.63,166.6,33.63s113.83-11.32,166.6-33.63c50.97-21.56,96.74-52.42,136.04-91.72s70.17-85.08,91.72-136.04c22.32-52.77,33.63-108.82,33.63-166.6s-11.32-113.83-33.63-166.6c-21.56-50.97-52.42-96.74-91.72-136.04s-85.08-70.17-136.04-91.72C542.83,12.32,486.78,1,429,1Z"/><rect x=".49" y=".49" width="857" height="857" style="fill:none;"/><path d="M857.12,428.81C857.12,192.64,664.98.5,428.81.5S.5,192.64.5,428.81s192.14,428.31,428.31,428.31,428.31-192.14,428.31-428.31ZM472.87,717.63l.02-.07c-1.17,2.23-2.05,4.54-3.06,6.82-.99,2.28-1.98,4.57-2.8,6.9l-2.57,6.95-2.23,7.03c-1.49,4.48-2.54,9.03-3.8,13.55l-.02.05-.08.28-.11.43-.16.63-.24,1.09-.41,2.04-.67,3.97c-.39,2.63-.69,5.26-.91,7.9-.43,5.28-.52,10.61-.15,16.03.38,5.41,1.2,10.92,2.76,16.42,1.56,5.49,3.88,11.01,7.28,16.1,1.95,2.94,4.31,5.67,6.92,8.14-14.41,1.56-29.02,2.41-43.83,2.41-73.65,0-142.72-19.84-202.31-54.31,1.51-.9,2.98-1.88,4.35-3,7.88-6.45,12.96-15.39,16.55-24.84,3.57-9.53,5.73-19.91,6.95-30.93,1.19-11.03,1.42-22.73.52-35.03-.22-3.07-.53-6.18-.92-9.33-.22-1.61-.44-3.23-.66-4.86-.24-1.51-.45-2.94-.81-4.72-1.26-6.72-3.03-13.18-5.33-19.74-2.31-6.53-5.11-13.01-8.45-19.33-3.25-6.35-7.33-12.61-10.98-18.25-7.51-11.65-15.14-23.54-22.5-35.99-14.69-24.85-28.14-52.07-36.99-81.76-8.91-29.61-12.78-61.68-10.09-93.97,1.32-16.13,4.17-32.3,8.42-48.21,4.32-15.9,10.02-31.53,16.69-46.76,1.73-3.79,3.39-7.6,5.18-11.36l5.64-11.16,1.41-2.79,1.45-2.65,3.09-5.61c2.12-3.45,4.01-6.91,6.32-10.34,8.8-13.82,19.03-26.61,30.28-38.22,22.57-23.2,49.65-41.13,78.11-53.14,28.48-12.06,58.24-18.3,86.6-19.74,28.4-1.39,55.42,1.92,79.25,8.58,23.9,6.55,44.56,16.47,61.35,27.33,16.82,10.92,29.65,22.94,39.09,33.71,9.42,10.83,15.52,20.38,19.4,26.99,1.97,3.3,3.32,5.92,4.23,7.69.92,1.76,1.4,2.67,1.4,2.67l.39-.19c4.85,13.19,8.06,27.01,9.82,41.01l.82,7.09c.25,2.37.57,4.94.93,7.57.72,5.08,1.6,10.15,2.66,15.19,2.11,10.09,4.97,20.08,8.68,29.82,1.89,4.9,3.92,9.58,6.29,14.43,1.05,2.13,2.23,4.47,3.46,6.79,1.21,2.27,2.44,4.53,3.72,6.76,5.12,8.91,10.72,17.56,17.01,25.7,6.43,8.31,12.72,15.45,18.98,23.04l9.42,11.26,4.28,5.15c.67.9,1.18,1.91,1.52,2.97,1.19,3.77-.18,8.2-3.32,10.59-.38.31-.79.58-1.22.82-.28.15-.29.19-.79.44l-1.45.71-5.79,2.86-12.17,6.03c-.56.34-.59.27-2.11,1.3-1.29.87-2.11,1.63-2.92,2.4-1.61,1.61-3.02,3.44-4.05,5.46-2.1,4.01-2.94,8.64-2.31,13.14.28,2.26.98,4.46,1.94,6.51.89,1.98,2.64,4.24,2.98,4.69l3.93,5.13,3.74,4.93c.62.84,1.29,2.06,1.74,3.18.94,2.32,1.31,4.86,1.09,7.36-.21,2.29-.91,4.5-2.09,6.53l-3.15,5.42-.71,1.3-1.01,2.1c-.61,1.41-1.09,2.61-1.51,3.97-1.7,5.31-2.23,10.99-1.5,16.52.35,2.77,1.01,5.49,1.95,8.12.48,1.31,1.02,2.59,1.64,3.84l.52,1.12.31.67.08.27c.11.26.29.88.46,1.42.12.56.28,1.12.34,1.69.17,1.14.24,2.29.17,3.44-.17,2.3-.79,4.57-1.92,6.58-.26.53-.58.96-.91,1.5l-1.68,2.43-3.37,4.85c-1.08,1.47-3.05,4.48-4.11,7.22-1.16,2.82-1.91,5.8-2.23,8.82l-.12,1.17.12,1.18,2.2,20.74,1.09,10.38.05.46v.18l.03.33c.02.38.08.99.06,1.17l-.06,1.3c-.08,1.05-.23,2.08-.51,3.08-1.02,4.02-3.81,7.53-7.25,9.71-3.37,2.05-7.2,2.98-11.1,2.52-8.6-2.36-17.2-4.72-25.85-6.91-9.06-2.33-18.11-4.64-27.12-7.16l-3.38-.93-1.69-.46-1.23-.3-.65-.12-1.19-.2c-2.67-.41-5.14-.59-7.64-.7-5.33-1.45-11.39-2.8-18.2-3.79-9.76-1.5-21.01-1.93-32.94-1.29-11.91.65-24.39,2.46-36.91,3.35-12.55.86-25.35.62-38.29-2.33-12.93-2.82-25.99-7.85-38.73-14.46-3.18-1.69-6.39-3.31-9.52-5.18l-4.73-2.73-4.61-2.9c-5.44-3.6-11.18-8.18-16.22-12.97-10.26-9.7-19.05-21.13-26.48-33.26-7.44-12.14-13.55-24.96-18.64-37.75-6.43-16.21-11.27-32.31-15.02-47.5,25.66,26.27,61.44,42.62,100.98,42.62,77.89,0,141.24-63.36,141.24-141.24,0-15.88-2.65-31.17-7.52-45.45l-21.32,21.29c1.71,7.78,2.58,15.88,2.58,24.16,0,63.39-51.59,114.98-114.98,114.98s-114.73-51.36-114.96-114.56c0-.16-.02-.38-.02-.48.04-63.36,51.6-114.92,114.98-114.92,35.67,0,67.57,16.31,88.68,41.89l-92.6,92.6-43.96-43.92-18.57,18.57,62.53,62.52,126.6-126.6c-.2-.35-.45-.67-.65-1.02l.03-.04c-1.49-2.57-3.18-5.03-4.83-7.49-.64-.94-1.19-1.94-1.84-2.86-2.54-3.58-5.22-7.06-8.08-10.38-25.9-30.3-64.41-49.52-107.31-49.52-77.89,0-141.25,63.36-141.25,141.25,0,.13.01.26.01.39v.02c.02,7.3.6,14.47,1.69,21.47.01.09.02.16.03.25,1.42,13.61,3.93,32.96,8.71,55.91,4.84,22.91,11.87,49.53,23.34,76.9,5.75,13.66,12.66,27.5,21.18,40.82,8.52,13.3,18.7,26.09,30.85,37.14,6.15,5.56,12.43,10.47,19.76,15.11l5.09,3.05,5.16,2.85c3.4,1.94,6.94,3.66,10.44,5.43,14.03,6.94,28.89,12.41,43.97,15.39,15.07,3.14,30.23,3.11,43.77,1.89,13.04-1.19,24.62-3.06,35.2-3.91-2.97,1.79-5.88,3.67-8.64,5.73-2.12,1.55-4.07,3.29-6.11,4.94-1.89,1.79-3.84,3.53-5.66,5.39-3.61,3.72-7.01,7.61-10.1,11.7-3.11,4.08-5.9,8.33-8.55,12.65l-3.72,6.58-3.35,6.72ZM680.13,493.66s-.07.05-.15.11c-.44.23-.18.08.15-.11ZM512.49,825.55c-4.29-.13-8.4-.64-12.17-1.68-7.38-2.01-12.96-5.95-16.59-11.84-3.7-5.88-5.46-13.77-5.77-22.04-.16-4.14.02-8.4.5-12.66.23-2.12.54-4.25.92-6.35l.61-3.09.34-1.47.17-.66.04-.15-.26.75c-.12.33-.28.66-.44.97l.93-2.52c1.16-4.29,2.09-8.69,3.45-12.9l1.94-6.36,2.22-6.22c.7-2.1,1.55-4.11,2.4-6.12.86-2,1.61-4.08,2.6-6l2.83-5.86,3.11-5.66c2.2-3.67,4.49-7.27,7.02-10.66,2.52-3.39,5.22-6.59,8.1-9.59,1.44-1.5,2.99-2.86,4.48-4.31,1.6-1.28,3.12-2.68,4.78-3.89,3.28-2.46,6.69-4.69,10.29-6.58,3.6-1.85,7.3-3.54,11.17-4.74,3.85-1.24,7.8-2.2,11.8-2.79,4-.59,8.06-.83,12.04-.71,1.96.06,3.97.21,5.71.47l.54.08h.01l1.49.45,3.36,1c8.97,2.62,17.89,5.44,26.81,8.26,8.91,2.85,17.86,5.52,26.83,8.18l.82.24.89.11c4.86.61,9.9.39,14.72-.8,4.84-1.13,9.39-3.31,13.4-6.13,8.04-5.66,13.74-14.32,15.95-23.84.56-2.38.87-4.81.98-7.23.06-1.15.05-2.52-.02-3.92l-.27-3.05-1.09-10.38-2.01-19.08c.12-.65.23-1.3.48-1.91.41-.93.58-1.25,1.8-2.97l3.37-4.85,1.69-2.43c.73-1.11,1.53-2.31,2.17-3.53,2.7-4.88,4.26-10.37,4.64-15.93.18-2.78.04-5.58-.38-8.33-.2-1.38-.52-2.74-.85-4.09-.4-1.34-.76-2.61-1.4-4.18l-.45-1.11-.31-.67-.72-1.55c-.26-.52-.47-1.05-.68-1.59-.38-1.08-.65-2.21-.8-3.35-.31-2.28-.08-4.63.62-6.82.15-.52.42-1.15.58-1.55l.25-.57.71-1.3,2.84-4.77c2.83-4.74,4.65-10.2,5.2-15.74.61-6.07-.23-12.3-2.47-17.99-1.15-2.86-2.52-5.49-4.4-8.15l-4.03-5.4-3.72-4.96,10.38-4.99,5.82-2.81,1.45-.7,2.06-1.08c1.44-.8,2.84-1.73,4.14-2.77,5.28-4.08,9.16-9.84,11.15-16.16,2.04-6.33,1.97-13.31.06-19.64-1.11-3.61-2.84-7.03-5.1-10.06-1.34-1.74-1.9-2.32-2.73-3.34l-2.35-2.82-9.42-11.27c-6.19-7.51-12.82-15.09-18.36-22.27-5.63-7.39-10.92-15.05-15.63-23.06-1.19-2-2.33-4.02-3.45-6.06-1.09-1.98-2.15-3.99-3.29-6.24-1.98-3.92-3.91-8.19-5.61-12.4-3.48-8.47-6.27-17.28-8.41-26.3-1.07-4.51-1.99-9.07-2.77-13.66-.36-2.22-.72-4.49-1.05-6.98-.33-2.26-.66-5-1.09-7.47-3.35-20.25-9.49-40.19-18.93-58.58-9.44-18.39-22.47-34.9-37.78-48.58-7.72-6.8-16.14-12.67-24.81-17.99-8.82-5.07-17.88-9.68-27.29-13.31-4.65-1.95-9.5-3.33-14.22-5.01-2.48-.69-4.95-1.4-7.43-2.09-6.83-2.65-13.94-5.09-21.36-7.18-25.52-7.36-54.36-11.15-84.74-9.92-30.34,1.28-62.26,7.67-93.02,20.38-30.72,12.64-60.19,31.76-84.85,56.68-12.29,12.47-23.49,26.23-33.13,41.08-2.48,3.62-4.75,7.62-7.11,11.43l-3.14,5.58-1.65,2.96-1.49,2.93-5.95,11.72c-1.9,3.95-3.66,7.98-5.49,11.97-7.09,16.08-13.18,32.66-17.84,49.66-4.59,17.01-7.7,34.4-9.17,51.83-3,34.88,1.14,69.77,10.67,101.58,9.54,31.86,23.87,60.64,39.09,86.34,7.62,12.86,15.46,25.04,22.95,36.63,3.86,5.97,7.23,11.12,10.08,16.66,2.89,5.48,5.3,11.05,7.28,16.62,1.96,5.54,3.51,11.23,4.51,16.58.26,1.22.5,2.82.74,4.3.19,1.38.38,2.74.56,4.1.35,2.81.62,5.59.83,8.35.82,11.03.62,21.6-.42,31.3-1.05,9.69-2.95,18.55-5.72,25.93-2.73,7.38-6.47,13.15-10.28,16.19-3.79,3.08-7.4,3.71-11.28,3.43-2.74-.24-5.42-1.06-7.81-2.01C92.94,689.31,23.34,567.06,23.34,428.81,23.34,205.23,205.23,23.34,428.81,23.34s405.46,181.9,405.46,405.47c0,194.89-138.23,358.07-321.78,396.74Z" style="fill:#fff;"/></svg>